<svg width="48" height="48" viewBox="0 0 48 48" fill="none" xmlns="http://www.w3.org/2000/svg">
<path d="M45.9357 21.3248L26.6745 1.7008C25.1893 0.187623 22.8222 0.187623 21.337 1.7008L2.07582 21.3248C0.590614 22.838 0.590614 25.2496 2.07582 26.7628L21.337 46.3868C22.8222 47.9 25.1893 47.9 26.6745 46.3868L45.9357 26.7628C47.4209 25.2496 47.4209 22.838 45.9357 21.3248ZM21.8476 28.3233C21.8012 28.5597 21.8012 28.8434 21.7083 29.1272C21.4299 30.5458 20.7337 31.6806 19.6662 32.5318C18.5987 33.4303 17.3455 33.8558 15.9068 33.8558C14.1895 33.8558 12.9828 33.383 12.333 32.3899C11.776 31.5388 11.5904 30.3566 11.7296 28.7961C11.7296 28.607 11.776 28.4179 11.776 28.2287C11.8225 28.0396 11.9617 27.8977 12.1473 27.8504L14.6072 27.4248C14.8857 27.3775 15.1642 27.614 15.1177 27.945C15.1177 28.0396 15.0713 28.1814 15.0713 28.276C14.8857 30.0729 15.3034 30.9241 16.3709 30.9241C16.835 30.9241 17.2063 30.7822 17.4848 30.4512C17.7633 30.1675 17.9489 29.7892 18.0417 29.3163C18.0881 29.1744 18.0881 29.0326 18.0881 28.8907C18.1346 28.5124 18.1346 28.1814 18.0417 27.8504C17.9489 27.4248 17.8097 27.0465 17.624 26.7628C17.4384 26.4791 17.1135 26.1008 16.7422 25.6752L15.0249 23.831C14.4216 23.169 13.9574 22.4597 13.7254 21.7504C13.5397 21.2303 13.4933 20.6155 13.5861 19.8589C13.6325 19.6225 13.6325 19.3388 13.7254 19.0551C14.0503 17.4946 14.7464 16.3124 15.8139 15.5086C16.8814 14.6574 18.181 14.2318 19.759 14.2318H19.8518C20.548 14.2318 21.1514 14.3264 21.6155 14.5155C22.126 14.7047 22.4973 14.9884 22.7758 15.3194C23.0543 15.6504 23.2399 16.076 23.3792 16.5489C23.5184 17.0217 23.5648 17.4946 23.5648 17.9675C23.5648 18.2512 23.5184 18.5822 23.5184 18.9605C23.5184 19.0551 23.5184 19.1496 23.472 19.1969C23.4256 19.3861 23.2864 19.5752 23.1007 19.5752L20.5944 19.9535C20.3159 20.0008 20.0375 19.7644 20.0839 19.4334C20.1303 19.2442 20.1303 19.1024 20.1303 18.9605C20.1303 18.8186 20.1767 18.6295 20.1767 18.4876C20.2231 18.062 20.1303 17.6837 19.9446 17.4C19.759 17.1636 19.5269 17.0217 19.1556 17.0217H19.0628C18.5987 17.069 18.2274 17.2109 17.9489 17.5419C17.624 17.8729 17.4384 18.2512 17.3455 18.6768C17.2991 18.7713 17.2991 18.9132 17.2991 19.0078C17.2527 19.3388 17.2991 19.6225 17.3455 19.9062C17.4384 20.2845 17.5312 20.5682 17.6704 20.8047C17.8097 20.9938 18.0417 21.2775 18.3202 21.6086L19.9911 23.4527C20.3159 23.831 20.6408 24.2093 20.8729 24.5876C21.105 24.9659 21.337 25.3442 21.4763 25.8171C21.6619 26.2899 21.7547 26.8101 21.8012 27.3303C21.894 27.6613 21.8476 27.9923 21.8476 28.3233ZM36.2819 18.4876C36.2355 18.7713 36.189 19.1024 36.1426 19.3861C35.7713 21.1357 34.9823 22.3179 33.822 22.8853C33.4507 23.1217 33.4507 23.5473 33.7756 23.7365C34.7967 24.3512 35.2144 25.4861 35.0751 27.1411C35.0287 27.4248 35.0287 27.7086 34.9359 27.9923C34.5646 29.8837 33.822 31.2551 32.6617 32.2008C31.5478 33.1465 30.109 33.6194 28.2989 33.6194H23.2864C23.0079 33.6194 22.7758 33.3357 22.8686 33.052L26.6281 14.8465C26.6745 14.6574 26.8601 14.5155 27.0458 14.5155H31.4085C32.1047 14.5155 32.7081 14.5628 33.2651 14.6574C33.7756 14.752 34.2861 14.8938 34.7503 15.1303C35.2144 15.3667 35.5393 15.6504 35.8177 16.0287C36.0498 16.407 36.2355 16.8799 36.2819 17.4473C36.3283 17.731 36.3283 18.1093 36.2819 18.4876ZM30.4803 17.1163H30.2946C30.109 17.1163 29.9233 17.2582 29.8769 17.4473L28.9951 21.6558C28.9487 21.9396 29.1343 22.2233 29.4128 22.2233H29.8305C30.8052 22.2233 31.5014 22.0341 31.9191 21.5613C32.3832 21.1357 32.6617 20.4264 32.8938 19.4806C32.9402 19.3388 32.9402 19.1496 32.9402 19.0078C32.9866 18.3458 32.8938 17.8729 32.5689 17.5892C32.1511 17.2582 31.455 17.1163 30.4803 17.1163ZM29.2736 24.8241H28.6702C28.4846 24.8241 28.2989 24.9659 28.2525 25.2024L27.185 30.4039C27.1386 30.6876 27.3242 30.9241 27.6027 30.9241H28.1133C29.0879 30.9241 29.8305 30.6876 30.2946 30.2148C30.7588 29.7419 31.1301 28.9853 31.3157 27.945C31.3621 27.6613 31.4085 27.4248 31.455 27.1884C31.5478 26.4318 31.455 25.9117 31.2229 25.5334C30.898 25.0605 30.2482 24.8241 29.2736 24.8241Z" fill="#F7FAFD"/>
</svg>
